<?xml version="1.0" encoding="UTF-8" standalone="no"?><svg xmlns="http://www.w3.org/2000/svg" xmlns:xlink="http://www.w3.org/1999/xlink" contentScriptType="application/ecmascript" contentStyleType="text/css" height="442px" preserveAspectRatio="none" style="width:355px;height:442px;" version="1.1" viewBox="0 0 355 442" width="355px" zoomAndPan="magnify"><defs><filter height="300%" id="f1el9ndpa0d3pv" width="300%" x="-1" y="-1"><feGaussianBlur result="blurOut" stdDeviation="2.0"/><feColorMatrix in="blurOut" result="blurOut2" type="matrix" values="0 0 0 0 0 0 0 0 0 0 0 0 0 0 0 0 0 0 .4 0"/><feOffset dx="4.0" dy="4.0" in="blurOut2" result="blurOut3"/><feBlend in="SourceGraphic" in2="blurOut3" mode="normal"/></filter></defs><g><!--MD5=[cbd74f30e9c1ee3304623c3a037804b7]
class CarBrand--><rect codeLine="1" fill="#FEFECE" filter="url(#f1el9ndpa0d3pv)" height="131.0156" id="CarBrand" style="stroke: #A80036; stroke-width: 1.5;" width="85" x="7" y="7"/><ellipse cx="22" cy="23" fill="#EB937F" rx="11" ry="11" style="stroke: #A80036; stroke-width: 1.0;"/><path d="M20.8594,23.7969 L20.8594,26.2969 L25.1875,26.2969 L25.1875,25.375 Q25.1875,24.7656 25.4297,24.5 Q25.6719,24.2344 26.0469,24.2344 Q26.4219,24.2344 26.6563,24.5 Q26.8906,24.7656 26.8906,25.375 L26.8906,28 L18.8906,28 Q18.2656,28 18.0078,27.7656 Q17.75,27.5313 17.75,27.1406 Q17.75,26.7656 18.0156,26.5313 Q18.2813,26.2969 18.8906,26.2969 L19.1563,26.2969 L19.1563,19.6406 L18.8906,19.6406 Q18.2656,19.6406 18.0078,19.4063 Q17.75,19.1719 17.75,18.7813 Q17.75,18.4063 18.0078,18.1719 Q18.2656,17.9375 18.8906,17.9375 L26.5156,17.9375 L26.5156,20.5313 Q26.5156,21.1406 26.2891,21.3984 Q26.0625,21.6563 25.6719,21.6563 Q25.2969,21.6563 25.0625,21.3984 Q24.8281,21.1406 24.8281,20.5313 L24.8281,19.6406 L20.8594,19.6406 L20.8594,22.0938 L22.3438,22.0938 Q22.3438,21.4375 22.4688,21.25 Q22.7344,20.8438 23.2031,20.8438 Q23.5781,20.8438 23.8125,21.1016 Q24.0469,21.3594 24.0469,21.9688 L24.0469,23.9375 Q24.0469,24.4844 23.9219,24.6719 Q23.6563,25.0625 23.2031,25.0625 Q22.7344,25.0625 22.4688,24.6563 Q22.3438,24.4688 22.3438,23.7969 L20.8594,23.7969 Z "/><text fill="#000000" font-family="sans-serif" font-size="12" lengthAdjust="spacingAndGlyphs" textLength="53" x="36" y="27.9102">CarBrand</text><line style="stroke: #A80036; stroke-width: 1.5;" x1="8" x2="91" y1="39" y2="39"/><text fill="#000000" font-family="sans-serif" font-size="11" lengthAdjust="spacingAndGlyphs" textLength="48" x="13" y="54.4189">Mercedes</text><text fill="#000000" font-family="sans-serif" font-size="11" lengthAdjust="spacingAndGlyphs" textLength="61" x="13" y="68.2549">Volkswagen</text><text fill="#000000" font-family="sans-serif" font-size="11" lengthAdjust="spacingAndGlyphs" textLength="22" x="13" y="82.0908">Audi</text><text fill="#000000" font-family="sans-serif" font-size="11" lengthAdjust="spacingAndGlyphs" textLength="40" x="13" y="95.9268">Porsche</text><text fill="#000000" font-family="sans-serif" font-size="11" lengthAdjust="spacingAndGlyphs" textLength="33" x="13" y="109.7627">Toyota</text><text fill="#000000" font-family="sans-serif" font-size="11" lengthAdjust="spacingAndGlyphs" textLength="36" x="13" y="123.5986">Bentley</text><line style="stroke: #A80036; stroke-width: 1.5;" x1="8" x2="91" y1="130.0156" y2="130.0156"/><!--MD5=[e10387b9f960584c465eabce7ab74297]
class CarYear--><rect codeLine="9" fill="#FEFECE" filter="url(#f1el9ndpa0d3pv)" height="103.3438" id="CarYear" style="stroke: #A80036; stroke-width: 1.5;" width="77" x="127" y="21"/><ellipse cx="142" cy="37" fill="#EB937F" rx="11" ry="11" style="stroke: #A80036; stroke-width: 1.0;"/><path d="M140.8594,37.7969 L140.8594,40.2969 L145.1875,40.2969 L145.1875,39.375 Q145.1875,38.7656 145.4297,38.5 Q145.6719,38.2344 146.0469,38.2344 Q146.4219,38.2344 146.6563,38.5 Q146.8906,38.7656 146.8906,39.375 L146.8906,42 L138.8906,42 Q138.2656,42 138.0078,41.7656 Q137.75,41.5313 137.75,41.1406 Q137.75,40.7656 138.0156,40.5313 Q138.2813,40.2969 138.8906,40.2969 L139.1563,40.2969 L139.1563,33.6406 L138.8906,33.6406 Q138.2656,33.6406 138.0078,33.4063 Q137.75,33.1719 137.75,32.7813 Q137.75,32.4063 138.0078,32.1719 Q138.2656,31.9375 138.8906,31.9375 L146.5156,31.9375 L146.5156,34.5313 Q146.5156,35.1406 146.2891,35.3984 Q146.0625,35.6563 145.6719,35.6563 Q145.2969,35.6563 145.0625,35.3984 Q144.8281,35.1406 144.8281,34.5313 L144.8281,33.6406 L140.8594,33.6406 L140.8594,36.0938 L142.3438,36.0938 Q142.3438,35.4375 142.4688,35.25 Q142.7344,34.8438 143.2031,34.8438 Q143.5781,34.8438 143.8125,35.1016 Q144.0469,35.3594 144.0469,35.9688 L144.0469,37.9375 Q144.0469,38.4844 143.9219,38.6719 Q143.6563,39.0625 143.2031,39.0625 Q142.7344,39.0625 142.4688,38.6563 Q142.3438,38.4688 142.3438,37.7969 L140.8594,37.7969 Z "/><text fill="#000000" font-family="sans-serif" font-size="12" lengthAdjust="spacingAndGlyphs" textLength="45" x="156" y="41.9102">CarYear</text><line style="stroke: #A80036; stroke-width: 1.5;" x1="128" x2="203" y1="53" y2="53"/><text fill="#000000" font-family="sans-serif" font-size="11" lengthAdjust="spacingAndGlyphs" textLength="24" x="133" y="68.4189">2001</text><text fill="#000000" font-family="sans-serif" font-size="11" lengthAdjust="spacingAndGlyphs" textLength="24" x="133" y="82.2549">2003</text><text fill="#000000" font-family="sans-serif" font-size="11" lengthAdjust="spacingAndGlyphs" textLength="24" x="133" y="96.0908">2004</text><text fill="#000000" font-family="sans-serif" font-size="11" lengthAdjust="spacingAndGlyphs" textLength="24" x="133" y="109.9268">2005</text><line style="stroke: #A80036; stroke-width: 1.5;" x1="128" x2="203" y1="116.3438" y2="116.3438"/><!--MD5=[3f0ef310aaa84a542276992c5216544d]
class Car--><rect codeLine="15" fill="#FEFECE" filter="url(#f1el9ndpa0d3pv)" height="89.5078" id="Car" style="stroke: #A80036; stroke-width: 1.5;" width="97" x="239" y="334"/><ellipse cx="274.25" cy="350" fill="#ADD1B2" rx="11" ry="11" style="stroke: #A80036; stroke-width: 1.0;"/><path d="M277.0156,345.875 Q277.1719,345.6563 277.3594,345.5469 Q277.5469,345.4375 277.7656,345.4375 Q278.1406,345.4375 278.375,345.6953 Q278.6094,345.9531 278.6094,346.5625 L278.6094,348.0156 Q278.6094,348.625 278.375,348.8906 Q278.1406,349.1563 277.7656,349.1563 Q277.4219,349.1563 277.2188,348.9531 Q277.0156,348.7656 276.9063,348.25 Q276.8594,347.8906 276.6719,347.7031 Q276.3438,347.3281 275.7344,347.1094 Q275.125,346.8906 274.5,346.8906 Q273.7344,346.8906 273.1016,347.2188 Q272.4688,347.5469 271.9766,348.2969 Q271.4844,349.0469 271.4844,350.0781 L271.4844,351.1719 Q271.4844,352.4063 272.375,353.2266 Q273.2656,354.0469 274.8594,354.0469 Q275.7969,354.0469 276.4531,353.7969 Q276.8438,353.6406 277.2656,353.2031 Q277.5313,352.9375 277.6797,352.8594 Q277.8281,352.7813 278.0313,352.7813 Q278.3594,352.7813 278.6172,353.0391 Q278.875,353.2969 278.875,353.6406 Q278.875,353.9844 278.5313,354.3906 Q278.0313,354.9688 277.2344,355.2969 Q276.1563,355.75 274.8594,355.75 Q273.3438,355.75 272.1406,355.125 Q271.1563,354.625 270.4688,353.5547 Q269.7813,352.4844 269.7813,351.2031 L269.7813,350.0469 Q269.7813,348.7188 270.3984,347.5703 Q271.0156,346.4219 272.1094,345.8047 Q273.2031,345.1875 274.4375,345.1875 Q275.1719,345.1875 275.8203,345.3516 Q276.4688,345.5156 277.0156,345.875 Z "/><text fill="#000000" font-family="sans-serif" font-size="12" lengthAdjust="spacingAndGlyphs" textLength="20" x="292.75" y="354.9102">Car</text><line style="stroke: #A80036; stroke-width: 1.5;" x1="240" x2="335" y1="366" y2="366"/><text fill="#000000" font-family="sans-serif" font-size="11" lengthAdjust="spacingAndGlyphs" textLength="85" x="245" y="381.4189">brand : CarBrand!</text><text fill="#000000" font-family="sans-serif" font-size="11" lengthAdjust="spacingAndGlyphs" textLength="56" x="245" y="395.2549">mileage : Int</text><text fill="#000000" font-family="sans-serif" font-size="11" lengthAdjust="spacingAndGlyphs" textLength="61" x="245" y="409.0908">color : String</text><line style="stroke: #A80036; stroke-width: 1.5;" x1="240" x2="335" y1="415.5078" y2="415.5078"/><!--MD5=[eee9d396a8aca12c6c152931e8dc1ab6]
class Driver--><rect codeLine="20" fill="#FEFECE" filter="url(#f1el9ndpa0d3pv)" height="75.6719" id="Driver" style="stroke: #A80036; stroke-width: 1.5;" width="75" x="250" y="198"/><ellipse cx="269.95" cy="214" fill="#ADD1B2" rx="11" ry="11" style="stroke: #A80036; stroke-width: 1.0;"/><path d="M272.7156,209.875 Q272.8719,209.6563 273.0594,209.5469 Q273.2469,209.4375 273.4656,209.4375 Q273.8406,209.4375 274.075,209.6953 Q274.3094,209.9531 274.3094,210.5625 L274.3094,212.0156 Q274.3094,212.625 274.075,212.8906 Q273.8406,213.1563 273.4656,213.1563 Q273.1219,213.1563 272.9188,212.9531 Q272.7156,212.7656 272.6063,212.25 Q272.5594,211.8906 272.3719,211.7031 Q272.0438,211.3281 271.4344,211.1094 Q270.825,210.8906 270.2,210.8906 Q269.4344,210.8906 268.8016,211.2188 Q268.1688,211.5469 267.6766,212.2969 Q267.1844,213.0469 267.1844,214.0781 L267.1844,215.1719 Q267.1844,216.4063 268.075,217.2266 Q268.9656,218.0469 270.5594,218.0469 Q271.4969,218.0469 272.1531,217.7969 Q272.5438,217.6406 272.9656,217.2031 Q273.2313,216.9375 273.3797,216.8594 Q273.5281,216.7813 273.7313,216.7813 Q274.0594,216.7813 274.3172,217.0391 Q274.575,217.2969 274.575,217.6406 Q274.575,217.9844 274.2313,218.3906 Q273.7313,218.9688 272.9344,219.2969 Q271.8563,219.75 270.5594,219.75 Q269.0438,219.75 267.8406,219.125 Q266.8563,218.625 266.1688,217.5547 Q265.4813,216.4844 265.4813,215.2031 L265.4813,214.0469 Q265.4813,212.7188 266.0984,211.5703 Q266.7156,210.4219 267.8094,209.8047 Q268.9031,209.1875 270.1375,209.1875 Q270.8719,209.1875 271.5203,209.3516 Q272.1688,209.5156 272.7156,209.875 Z "/><text fill="#000000" font-family="sans-serif" font-size="12" lengthAdjust="spacingAndGlyphs" textLength="32" x="285.05" y="218.9102">Driver</text><line style="stroke: #A80036; stroke-width: 1.5;" x1="251" x2="324" y1="230" y2="230"/><text fill="#000000" font-family="sans-serif" font-size="11" lengthAdjust="spacingAndGlyphs" textLength="63" x="256" y="245.4189">name : String</text><text fill="#000000" font-family="sans-serif" font-size="11" lengthAdjust="spacingAndGlyphs" textLength="38" x="256" y="259.2549">age : Int</text><line style="stroke: #A80036; stroke-width: 1.5;" x1="251" x2="324" y1="265.6719" y2="265.6719"/><!--MD5=[c50d89439a12e948b363c4efab1c487c]
class Department--><rect codeLine="24" fill="#FEFECE" filter="url(#f1el9ndpa0d3pv)" height="75.6719" id="Department" style="stroke: #A80036; stroke-width: 1.5;" width="97" x="239" y="34.5"/><ellipse cx="254" cy="50.5" fill="#ADD1B2" rx="11" ry="11" style="stroke: #A80036; stroke-width: 1.0;"/><path d="M256.7656,46.375 Q256.9219,46.1563 257.1094,46.0469 Q257.2969,45.9375 257.5156,45.9375 Q257.8906,45.9375 258.125,46.1953 Q258.3594,46.4531 258.3594,47.0625 L258.3594,48.5156 Q258.3594,49.125 258.125,49.3906 Q257.8906,49.6563 257.5156,49.6563 Q257.1719,49.6563 256.9688,49.4531 Q256.7656,49.2656 256.6563,48.75 Q256.6094,48.3906 256.4219,48.2031 Q256.0938,47.8281 255.4844,47.6094 Q254.875,47.3906 254.25,47.3906 Q253.4844,47.3906 252.8516,47.7188 Q252.2188,48.0469 251.7266,48.7969 Q251.2344,49.5469 251.2344,50.5781 L251.2344,51.6719 Q251.2344,52.9063 252.125,53.7266 Q253.0156,54.5469 254.6094,54.5469 Q255.5469,54.5469 256.2031,54.2969 Q256.5938,54.1406 257.0156,53.7031 Q257.2813,53.4375 257.4297,53.3594 Q257.5781,53.2813 257.7813,53.2813 Q258.1094,53.2813 258.3672,53.5391 Q258.625,53.7969 258.625,54.1406 Q258.625,54.4844 258.2813,54.8906 Q257.7813,55.4688 256.9844,55.7969 Q255.9063,56.25 254.6094,56.25 Q253.0938,56.25 251.8906,55.625 Q250.9063,55.125 250.2188,54.0547 Q249.5313,52.9844 249.5313,51.7031 L249.5313,50.5469 Q249.5313,49.2188 250.1484,48.0703 Q250.7656,46.9219 251.8594,46.3047 Q252.9531,45.6875 254.1875,45.6875 Q254.9219,45.6875 255.5703,45.8516 Q256.2188,46.0156 256.7656,46.375 Z "/><text fill="#000000" font-family="sans-serif" font-size="12" lengthAdjust="spacingAndGlyphs" textLength="65" x="268" y="55.4102">Department</text><line style="stroke: #A80036; stroke-width: 1.5;" x1="240" x2="335" y1="66.5" y2="66.5"/><text fill="#000000" font-family="sans-serif" font-size="11" lengthAdjust="spacingAndGlyphs" textLength="63" x="245" y="81.9189">name : String</text><text fill="#000000" font-family="sans-serif" font-size="11" lengthAdjust="spacingAndGlyphs" textLength="44" x="245" y="95.7549">Year : Int</text><line style="stroke: #A80036; stroke-width: 1.5;" x1="240" x2="335" y1="102.1719" y2="102.1719"/><!--MD5=[85884a73f707af3ae230d559cad4fc2c]
link Driver to Car--><path codeLine="28" d="M287.5,274.046 C287.5,290.827 287.5,310.9 287.5,328.9122 " fill="none" id="Driver-to-Car" style="stroke: #A80036; stroke-width: 1.0;"/><polygon fill="#A80036" points="287.5,333.9335,291.5,324.9335,287.5,328.9335,283.5,324.9335,287.5,333.9335" style="stroke: #A80036; stroke-width: 1.0;"/><!--MD5=[738fc3f312a65e5364912c545305e577]
link Department to Driver--><path codeLine="29" d="M287.5,110.551 C287.5,135.084 287.5,167.318 287.5,192.833 " fill="none" id="Department-to-Driver" style="stroke: #A80036; stroke-width: 1.0;"/><polygon fill="#A80036" points="287.5,197.842,291.5,188.842,287.5,192.842,283.5,188.842,287.5,197.842" style="stroke: #A80036; stroke-width: 1.0;"/><!--MD5=[e5d352af58b04e21dcce80cc0d5ebc9a]
@startuml
enum CarBrand { 
Mercedes 
Volkswagen 
Audi 
Porsche 
Toyota 
Bentley 
 } 
enum CarYear { 
2001 
2003 
2004 
2005 
 } 
class Car { 
brand : CarBrand! 
mileage : Int 
color : String 
} 
class Driver { 
name : String 
age : Int 
} 
class Department { 
name : String 
Year : Int 
} 
Driver - -> Car 
Department - -> Driver 
@enduml

PlantUML version 1.2020.16(Sun Aug 23 22:20:43 CEST 2020)
(GPL source distribution)
Java Runtime: Java(TM) SE Runtime Environment
JVM: Java HotSpot(TM) 64-Bit Server VM
Default Encoding: Cp1252
Language: en
Country: US
--></g></svg>