<?xml version="1.0" encoding="UTF-8" standalone="no"?><svg xmlns="http://www.w3.org/2000/svg" xmlns:xlink="http://www.w3.org/1999/xlink" contentScriptType="application/ecmascript" contentStyleType="text/css" height="522px" preserveAspectRatio="none" style="width:363px;height:522px;" version="1.1" viewBox="0 0 363 522" width="363px" zoomAndPan="magnify"><defs><filter height="300%" id="f13vbwpd6ik7m6" width="300%" x="-1" y="-1"><feGaussianBlur result="blurOut" stdDeviation="2.0"/><feColorMatrix in="blurOut" result="blurOut2" type="matrix" values="0 0 0 0 0 0 0 0 0 0 0 0 0 0 0 0 0 0 .4 0"/><feOffset dx="4.0" dy="4.0" in="blurOut2" result="blurOut3"/><feBlend in="SourceGraphic" in2="blurOut3" mode="normal"/></filter></defs><g><!--MD5=[0bd2ab4fa1acc27c7dc992c266c7150c]
class LikeModel--><rect codeLine="1" fill="#FEFECE" filter="url(#f13vbwpd6ik7m6)" height="117.1797" id="LikeModel" style="stroke: #A80036; stroke-width: 1.5;" width="88" x="7" y="7"/><ellipse cx="22" cy="23" fill="#EB937F" rx="11" ry="11" style="stroke: #A80036; stroke-width: 1.0;"/><path d="M20.8594,23.7969 L20.8594,26.2969 L25.1875,26.2969 L25.1875,25.375 Q25.1875,24.7656 25.4297,24.5 Q25.6719,24.2344 26.0469,24.2344 Q26.4219,24.2344 26.6563,24.5 Q26.8906,24.7656 26.8906,25.375 L26.8906,28 L18.8906,28 Q18.2656,28 18.0078,27.7656 Q17.75,27.5313 17.75,27.1406 Q17.75,26.7656 18.0156,26.5313 Q18.2813,26.2969 18.8906,26.2969 L19.1563,26.2969 L19.1563,19.6406 L18.8906,19.6406 Q18.2656,19.6406 18.0078,19.4063 Q17.75,19.1719 17.75,18.7813 Q17.75,18.4063 18.0078,18.1719 Q18.2656,17.9375 18.8906,17.9375 L26.5156,17.9375 L26.5156,20.5313 Q26.5156,21.1406 26.2891,21.3984 Q26.0625,21.6563 25.6719,21.6563 Q25.2969,21.6563 25.0625,21.3984 Q24.8281,21.1406 24.8281,20.5313 L24.8281,19.6406 L20.8594,19.6406 L20.8594,22.0938 L22.3438,22.0938 Q22.3438,21.4375 22.4688,21.25 Q22.7344,20.8438 23.2031,20.8438 Q23.5781,20.8438 23.8125,21.1016 Q24.0469,21.3594 24.0469,21.9688 L24.0469,23.9375 Q24.0469,24.4844 23.9219,24.6719 Q23.6563,25.0625 23.2031,25.0625 Q22.7344,25.0625 22.4688,24.6563 Q22.3438,24.4688 22.3438,23.7969 L20.8594,23.7969 Z "/><text fill="#000000" font-family="sans-serif" font-size="12" lengthAdjust="spacingAndGlyphs" textLength="56" x="36" y="27.9102">LikeModel</text><line style="stroke: #A80036; stroke-width: 1.5;" x1="8" x2="94" y1="39" y2="39"/><text fill="#000000" font-family="sans-serif" font-size="11" lengthAdjust="spacingAndGlyphs" textLength="19" x="13" y="54.4189">Like</text><text fill="#000000" font-family="sans-serif" font-size="11" lengthAdjust="spacingAndGlyphs" textLength="30" x="13" y="68.2549">Dislike</text><text fill="#000000" font-family="sans-serif" font-size="11" lengthAdjust="spacingAndGlyphs" textLength="31" x="13" y="82.0908">Happy</text><text fill="#000000" font-family="sans-serif" font-size="11" lengthAdjust="spacingAndGlyphs" textLength="24" x="13" y="95.9268">Love</text><text fill="#000000" font-family="sans-serif" font-size="11" lengthAdjust="spacingAndGlyphs" textLength="19" x="13" y="109.7627">Sad</text><line style="stroke: #A80036; stroke-width: 1.5;" x1="8" x2="94" y1="116.1797" y2="116.1797"/><!--MD5=[3fd616f346a44cd59a91eb10b19e157c]
class User--><rect codeLine="8" fill="#FEFECE" filter="url(#f13vbwpd6ik7m6)" height="75.6719" id="User" style="stroke: #A80036; stroke-width: 1.5;" width="75" x="131.5" y="428"/><ellipse cx="153.7" cy="444" fill="#ADD1B2" rx="11" ry="11" style="stroke: #A80036; stroke-width: 1.0;"/><path d="M156.4656,439.875 Q156.6219,439.6563 156.8094,439.5469 Q156.9969,439.4375 157.2156,439.4375 Q157.5906,439.4375 157.825,439.6953 Q158.0594,439.9531 158.0594,440.5625 L158.0594,442.0156 Q158.0594,442.625 157.825,442.8906 Q157.5906,443.1563 157.2156,443.1563 Q156.8719,443.1563 156.6688,442.9531 Q156.4656,442.7656 156.3563,442.25 Q156.3094,441.8906 156.1219,441.7031 Q155.7938,441.3281 155.1844,441.1094 Q154.575,440.8906 153.95,440.8906 Q153.1844,440.8906 152.5516,441.2188 Q151.9188,441.5469 151.4266,442.2969 Q150.9344,443.0469 150.9344,444.0781 L150.9344,445.1719 Q150.9344,446.4063 151.825,447.2266 Q152.7156,448.0469 154.3094,448.0469 Q155.2469,448.0469 155.9031,447.7969 Q156.2938,447.6406 156.7156,447.2031 Q156.9813,446.9375 157.1297,446.8594 Q157.2781,446.7813 157.4813,446.7813 Q157.8094,446.7813 158.0672,447.0391 Q158.325,447.2969 158.325,447.6406 Q158.325,447.9844 157.9813,448.3906 Q157.4813,448.9688 156.6844,449.2969 Q155.6063,449.75 154.3094,449.75 Q152.7938,449.75 151.5906,449.125 Q150.6063,448.625 149.9188,447.5547 Q149.2313,446.4844 149.2313,445.2031 L149.2313,444.0469 Q149.2313,442.7188 149.8484,441.5703 Q150.4656,440.4219 151.5594,439.8047 Q152.6531,439.1875 153.8875,439.1875 Q154.6219,439.1875 155.2703,439.3516 Q155.9188,439.5156 156.4656,439.875 Z "/><text fill="#000000" font-family="sans-serif" font-size="12" lengthAdjust="spacingAndGlyphs" textLength="27" x="169.3" y="448.9102">User</text><line style="stroke: #A80036; stroke-width: 1.5;" x1="132.5" x2="205.5" y1="460" y2="460"/><text fill="#000000" font-family="sans-serif" font-size="11" lengthAdjust="spacingAndGlyphs" textLength="63" x="137.5" y="475.4189">name : String</text><text fill="#000000" font-family="sans-serif" font-size="11" lengthAdjust="spacingAndGlyphs" textLength="61" x="137.5" y="489.2549">email : String</text><line style="stroke: #A80036; stroke-width: 1.5;" x1="132.5" x2="205.5" y1="495.6719" y2="495.6719"/><!--MD5=[e3d83ec5fd90ea9f3f2bfe265cb53458]
class Status--><rect codeLine="12" fill="#FEFECE" filter="url(#f13vbwpd6ik7m6)" height="61.8359" id="Status" style="stroke: #A80036; stroke-width: 1.5;" width="67" x="92.5" y="306"/><ellipse cx="107.5" cy="322" fill="#ADD1B2" rx="11" ry="11" style="stroke: #A80036; stroke-width: 1.0;"/><path d="M110.2656,317.875 Q110.4219,317.6563 110.6094,317.5469 Q110.7969,317.4375 111.0156,317.4375 Q111.3906,317.4375 111.625,317.6953 Q111.8594,317.9531 111.8594,318.5625 L111.8594,320.0156 Q111.8594,320.625 111.625,320.8906 Q111.3906,321.1563 111.0156,321.1563 Q110.6719,321.1563 110.4688,320.9531 Q110.2656,320.7656 110.1563,320.25 Q110.1094,319.8906 109.9219,319.7031 Q109.5938,319.3281 108.9844,319.1094 Q108.375,318.8906 107.75,318.8906 Q106.9844,318.8906 106.3516,319.2188 Q105.7188,319.5469 105.2266,320.2969 Q104.7344,321.0469 104.7344,322.0781 L104.7344,323.1719 Q104.7344,324.4063 105.625,325.2266 Q106.5156,326.0469 108.1094,326.0469 Q109.0469,326.0469 109.7031,325.7969 Q110.0938,325.6406 110.5156,325.2031 Q110.7813,324.9375 110.9297,324.8594 Q111.0781,324.7813 111.2813,324.7813 Q111.6094,324.7813 111.8672,325.0391 Q112.125,325.2969 112.125,325.6406 Q112.125,325.9844 111.7813,326.3906 Q111.2813,326.9688 110.4844,327.2969 Q109.4063,327.75 108.1094,327.75 Q106.5938,327.75 105.3906,327.125 Q104.4063,326.625 103.7188,325.5547 Q103.0313,324.4844 103.0313,323.2031 L103.0313,322.0469 Q103.0313,320.7188 103.6484,319.5703 Q104.2656,318.4219 105.3594,317.8047 Q106.4531,317.1875 107.6875,317.1875 Q108.4219,317.1875 109.0703,317.3516 Q109.7188,317.5156 110.2656,317.875 Z "/><text fill="#000000" font-family="sans-serif" font-size="12" lengthAdjust="spacingAndGlyphs" textLength="35" x="121.5" y="326.9102">Status</text><line style="stroke: #A80036; stroke-width: 1.5;" x1="93.5" x2="158.5" y1="338" y2="338"/><text fill="#000000" font-family="sans-serif" font-size="11" lengthAdjust="spacingAndGlyphs" textLength="55" x="98.5" y="353.4189">text : String</text><line style="stroke: #A80036; stroke-width: 1.5;" x1="93.5" x2="158.5" y1="359.8359" y2="359.8359"/><!--MD5=[378e3e2ca7e24a99f4479cd893fbde36]
class Like--><rect codeLine="15" fill="#FEFECE" filter="url(#f13vbwpd6ik7m6)" height="61.8359" id="Like" style="stroke: #A80036; stroke-width: 1.5;" width="107" x="159.5" y="184"/><ellipse cx="197.9" cy="200" fill="#ADD1B2" rx="11" ry="11" style="stroke: #A80036; stroke-width: 1.0;"/><path d="M200.6656,195.875 Q200.8219,195.6563 201.0094,195.5469 Q201.1969,195.4375 201.4156,195.4375 Q201.7906,195.4375 202.025,195.6953 Q202.2594,195.9531 202.2594,196.5625 L202.2594,198.0156 Q202.2594,198.625 202.025,198.8906 Q201.7906,199.1563 201.4156,199.1563 Q201.0719,199.1563 200.8688,198.9531 Q200.6656,198.7656 200.5563,198.25 Q200.5094,197.8906 200.3219,197.7031 Q199.9938,197.3281 199.3844,197.1094 Q198.775,196.8906 198.15,196.8906 Q197.3844,196.8906 196.7516,197.2188 Q196.1188,197.5469 195.6266,198.2969 Q195.1344,199.0469 195.1344,200.0781 L195.1344,201.1719 Q195.1344,202.4063 196.025,203.2266 Q196.9156,204.0469 198.5094,204.0469 Q199.4469,204.0469 200.1031,203.7969 Q200.4938,203.6406 200.9156,203.2031 Q201.1813,202.9375 201.3297,202.8594 Q201.4781,202.7813 201.6813,202.7813 Q202.0094,202.7813 202.2672,203.0391 Q202.525,203.2969 202.525,203.6406 Q202.525,203.9844 202.1813,204.3906 Q201.6813,204.9688 200.8844,205.2969 Q199.8063,205.75 198.5094,205.75 Q196.9938,205.75 195.7906,205.125 Q194.8063,204.625 194.1188,203.5547 Q193.4313,202.4844 193.4313,201.2031 L193.4313,200.0469 Q193.4313,198.7188 194.0484,197.5703 Q194.6656,196.4219 195.7594,195.8047 Q196.8531,195.1875 198.0875,195.1875 Q198.8219,195.1875 199.4703,195.3516 Q200.1188,195.5156 200.6656,195.875 Z "/><text fill="#000000" font-family="sans-serif" font-size="12" lengthAdjust="spacingAndGlyphs" textLength="23" x="217.1" y="204.9102">Like</text><line style="stroke: #A80036; stroke-width: 1.5;" x1="160.5" x2="265.5" y1="216" y2="216"/><text fill="#000000" font-family="sans-serif" font-size="11" lengthAdjust="spacingAndGlyphs" textLength="95" x="165.5" y="231.4189">reaction : LikeModel</text><line style="stroke: #A80036; stroke-width: 1.5;" x1="160.5" x2="265.5" y1="237.8359" y2="237.8359"/><!--MD5=[b76c921dec148580e221480ea486da2a]
class Friend--><rect codeLine="18" fill="#FEFECE" filter="url(#f13vbwpd6ik7m6)" height="61.8359" id="Friend" style="stroke: #A80036; stroke-width: 1.5;" width="68" x="276" y="306"/><ellipse cx="291.45" cy="322" fill="#ADD1B2" rx="11" ry="11" style="stroke: #A80036; stroke-width: 1.0;"/><path d="M294.2156,317.875 Q294.3719,317.6563 294.5594,317.5469 Q294.7469,317.4375 294.9656,317.4375 Q295.3406,317.4375 295.575,317.6953 Q295.8094,317.9531 295.8094,318.5625 L295.8094,320.0156 Q295.8094,320.625 295.575,320.8906 Q295.3406,321.1563 294.9656,321.1563 Q294.6219,321.1563 294.4188,320.9531 Q294.2156,320.7656 294.1063,320.25 Q294.0594,319.8906 293.8719,319.7031 Q293.5438,319.3281 292.9344,319.1094 Q292.325,318.8906 291.7,318.8906 Q290.9344,318.8906 290.3016,319.2188 Q289.6688,319.5469 289.1766,320.2969 Q288.6844,321.0469 288.6844,322.0781 L288.6844,323.1719 Q288.6844,324.4063 289.575,325.2266 Q290.4656,326.0469 292.0594,326.0469 Q292.9969,326.0469 293.6531,325.7969 Q294.0438,325.6406 294.4656,325.2031 Q294.7313,324.9375 294.8797,324.8594 Q295.0281,324.7813 295.2313,324.7813 Q295.5594,324.7813 295.8172,325.0391 Q296.075,325.2969 296.075,325.6406 Q296.075,325.9844 295.7313,326.3906 Q295.2313,326.9688 294.4344,327.2969 Q293.3563,327.75 292.0594,327.75 Q290.5438,327.75 289.3406,327.125 Q288.3563,326.625 287.6688,325.5547 Q286.9813,324.4844 286.9813,323.2031 L286.9813,322.0469 Q286.9813,320.7188 287.5984,319.5703 Q288.2156,318.4219 289.3094,317.8047 Q290.4031,317.1875 291.6375,317.1875 Q292.3719,317.1875 293.0203,317.3516 Q293.6688,317.5156 294.2156,317.875 Z "/><text fill="#000000" font-family="sans-serif" font-size="12" lengthAdjust="spacingAndGlyphs" textLength="35" x="305.55" y="326.9102">Friend</text><line style="stroke: #A80036; stroke-width: 1.5;" x1="277" x2="343" y1="338" y2="338"/><text fill="#000000" font-family="sans-serif" font-size="11" lengthAdjust="spacingAndGlyphs" textLength="56" x="282" y="353.4189">helper : key</text><line style="stroke: #A80036; stroke-width: 1.5;" x1="277" x2="343" y1="359.8359" y2="359.8359"/><!--MD5=[6c1c2f321d0e67d301519d175ee6c3c1]
class Stat--><rect codeLine="21" fill="#FEFECE" filter="url(#f13vbwpd6ik7m6)" height="61.8359" id="Stat" style="stroke: #A80036; stroke-width: 1.5;" width="59" x="130.5" y="34.5"/><ellipse cx="148.2" cy="50.5" fill="#ADD1B2" rx="11" ry="11" style="stroke: #A80036; stroke-width: 1.0;"/><path d="M150.9656,46.375 Q151.1219,46.1563 151.3094,46.0469 Q151.4969,45.9375 151.7156,45.9375 Q152.0906,45.9375 152.325,46.1953 Q152.5594,46.4531 152.5594,47.0625 L152.5594,48.5156 Q152.5594,49.125 152.325,49.3906 Q152.0906,49.6563 151.7156,49.6563 Q151.3719,49.6563 151.1688,49.4531 Q150.9656,49.2656 150.8563,48.75 Q150.8094,48.3906 150.6219,48.2031 Q150.2938,47.8281 149.6844,47.6094 Q149.075,47.3906 148.45,47.3906 Q147.6844,47.3906 147.0516,47.7188 Q146.4188,48.0469 145.9266,48.7969 Q145.4344,49.5469 145.4344,50.5781 L145.4344,51.6719 Q145.4344,52.9063 146.325,53.7266 Q147.2156,54.5469 148.8094,54.5469 Q149.7469,54.5469 150.4031,54.2969 Q150.7938,54.1406 151.2156,53.7031 Q151.4813,53.4375 151.6297,53.3594 Q151.7781,53.2813 151.9813,53.2813 Q152.3094,53.2813 152.5672,53.5391 Q152.825,53.7969 152.825,54.1406 Q152.825,54.4844 152.4813,54.8906 Q151.9813,55.4688 151.1844,55.7969 Q150.1063,56.25 148.8094,56.25 Q147.2938,56.25 146.0906,55.625 Q145.1063,55.125 144.4188,54.0547 Q143.7313,52.9844 143.7313,51.7031 L143.7313,50.5469 Q143.7313,49.2188 144.3484,48.0703 Q144.9656,46.9219 146.0594,46.3047 Q147.1531,45.6875 148.3875,45.6875 Q149.1219,45.6875 149.7703,45.8516 Q150.4188,46.0156 150.9656,46.375 Z "/><text fill="#000000" font-family="sans-serif" font-size="12" lengthAdjust="spacingAndGlyphs" textLength="21" x="162.8" y="55.4102">Stat</text><line style="stroke: #A80036; stroke-width: 1.5;" x1="131.5" x2="188.5" y1="66.5" y2="66.5"/><text fill="#000000" font-family="sans-serif" font-size="11" lengthAdjust="spacingAndGlyphs" textLength="47" x="136.5" y="81.9189">count : int</text><line style="stroke: #A80036; stroke-width: 1.5;" x1="131.5" x2="188.5" y1="88.3359" y2="88.3359"/><!--MD5=[a4bdbfdc985804937d3377a3520fda8e]
link Status to User--><path codeLine="24" d="M136.19,368.097 C141.729,384.457 148.669,404.9513 154.737,422.8741 " fill="none" id="Status-to-User" style="stroke: #A80036; stroke-width: 1.0;"/><polygon fill="#A80036" points="156.424,427.8555,157.3271,418.0481,154.8208,423.1195,149.7495,420.6132,156.424,427.8555" style="stroke: #A80036; stroke-width: 1.0;"/><!--MD5=[9c6784023f8368df09d25c9263ad79d3]
link Like to User--><path codeLine="25" d="M207.693,246.035 C199.892,290.179 185.299,372.761 176.435,422.9245 " fill="none" id="Like-to-User" style="stroke: #A80036; stroke-width: 1.0;"/><polygon fill="#A80036" points="175.543,427.9753,181.0478,419.8085,176.4129,423.0516,173.1698,418.4166,175.543,427.9753" style="stroke: #A80036; stroke-width: 1.0;"/><!--MD5=[a71b2ca3985fc22dbccbd1b6eb1a782d]
reverse link Like to Status--><path codeLine="26" d="M183.301,256.964 C171.711,272.951 158.661,290.95 147.947,305.729 " fill="none" id="Like-backto-Status" style="stroke: #A80036; stroke-width: 1.0;"/><polygon fill="#A80036" points="191.046,246.281,184.2855,248.7902,184.0016,255.9957,190.762,253.4865,191.046,246.281" style="stroke: #A80036; stroke-width: 1.0;"/><!--MD5=[2eeec9592f313290ac3bf32eb4579314]
reverse link Friend to User--><path codeLine="27" d="M266.86,376.856 C247.632,394.176 225.189,414.3903 206.649,431.0889 " fill="none" id="Friend-backto-User" style="stroke: #A80036; stroke-width: 1.0;"/><polygon fill="#A80036" points="276.585,368.097,269.4499,369.1412,267.6695,376.129,274.8046,375.0849,276.585,368.097" style="stroke: #A80036; stroke-width: 1.0;"/><!--MD5=[04a252443823bd8f2f62f81ccb2e3b28]
link Stat to User--><path codeLine="28" d="M138.516,96.754 C102.1656,151.909 36.1062,271.976 75,368 C85.7295,394.49 107.548,417.742 127.465,434.8356 " fill="none" id="Stat-to-User" style="stroke: #A80036; stroke-width: 1.0;"/><polygon fill="#A80036" points="131.419,438.1713,127.1193,429.3106,127.5973,434.9472,121.9607,435.4252,131.419,438.1713" style="stroke: #A80036; stroke-width: 1.0;"/><!--MD5=[5f200ef8fa721a78db73e1083f96c331]
link Stat to Status--><path codeLine="29" d="M154.944,96.876 C151.099,120.568 145.833,154.322 142,184 C136.843,223.927 132.179,269.918 129.235,300.76 " fill="none" id="Stat-to-Status" style="stroke: #A80036; stroke-width: 1.0;"/><polygon fill="#A80036" points="128.741,305.957,133.5743,297.3757,129.2139,300.9794,125.6101,296.619,128.741,305.957" style="stroke: #A80036; stroke-width: 1.0;"/><!--MD5=[d5042adcc9dc229544732fb865107793]
reverse link Stat to Friend--><path codeLine="30" d="M200.242,93.692 C228.324,114.908 264.191,146.939 284,184 C304.634,222.604 309.516,273.899 310.351,305.927 " fill="none" id="Stat-backto-Friend" style="stroke: #A80036; stroke-width: 1.0;"/><polygon fill="#A80036" points="189.526,85.829,191.9964,92.6037,199.2002,92.929,196.7298,86.1543,189.526,85.829" style="stroke: #A80036; stroke-width: 1.0;"/><!--MD5=[18b72fe5e9ce8819185c3aa6fec756bb]
reverse link Stat to Like--><path codeLine="31" d="M175.276,109.012 C183.876,132.948 194.412,162.269 202.161,183.836 " fill="none" id="Stat-backto-Like" style="stroke: #A80036; stroke-width: 1.0;"/><polygon fill="#A80036" points="170.853,96.705,169.1181,103.7043,174.9117,107.9978,176.6466,100.9985,170.853,96.705" style="stroke: #A80036; stroke-width: 1.0;"/><!--MD5=[3090e908686c578823056de219f18356]
@startuml
enum LikeModel { 
Like 
Dislike 
Happy 
Love 
Sad 
 } 
class User { 
name : String 
email : String 
} 
class Status { 
text : String 
} 
class Like { 
reaction : LikeModel 
} 
class Friend { 
helper : key 
} 
class Stat { 
count : int 
} 
Status - -> User 
Like - -> User 
Like *- - Status 
Friend *- - User 
Stat - -> User 
Stat - -> Status 
Stat *- - Friend 
Stat *- - Like 
@enduml

PlantUML version 1.2020.16(Sun Aug 23 22:20:43 CEST 2020)
(GPL source distribution)
Java Runtime: Java(TM) SE Runtime Environment
JVM: Java HotSpot(TM) 64-Bit Server VM
Default Encoding: Cp1252
Language: en
Country: US
--></g></svg>